<svg xmlns="http://www.w3.org/2000/svg" version="1.1" xmlns:xlink="http://www.w3.org/1999/xlink" xmlns:svgjs="http://svgjs.dev/svgjs" width="1500" height="1500" viewBox="0 0 1500 1500"><rect width="1500" height="1500" fill="#000000"></rect><g transform="matrix(0.6666666666666666,0,0,0.6666666666666666,249.39393939393938,444.6617777383945)"><svg viewBox="0 0 396 242" data-background-color="#f0e9e6" preserveAspectRatio="xMidYMid meet" height="916" width="1500" xmlns="http://www.w3.org/2000/svg" xmlns:xlink="http://www.w3.org/1999/xlink"><g id="tight-bounds" transform="matrix(1,0,0,1,0.2400000000000091,0.0019374246319046051)"><svg viewBox="0 0 395.52 241.9961251507362" height="241.9961251507362" width="395.52"><g><svg viewBox="0 0 395.52 241.9961251507362" height="241.9961251507362" width="395.52"><g transform="matrix(1,0,0,1,0,149.56331374620243)"><svg viewBox="0 0 395.52 92.43281140453377" height="92.43281140453377" width="395.52"><g id="textblocktransform"><svg viewBox="0 0 395.52 92.43281140453377" height="92.43281140453377" width="395.52" id="textblock"><g><svg viewBox="0 0 395.52 92.43281140453377" height="92.43281140453377" width="395.52"><g transform="matrix(1,0,0,1,0,0)"><svg width="395.52" viewBox="1.75 -37.5 213.93 50" height="92.43281140453377" data-palette-color="#7f8cd9"><path d="M19.6 0L25.15 0 25.15-1.95 21.45-1.95 21.45-37.5 15.85-37.5 15.85-35.55 19.4-35.55 19.4-18.95Q19.4-17.6 19.4-16.75 19.4-15.9 19.45-14.55L19.45-14.55Q19.05-15.4 18.4-16.2 17.75-17 16.7-17.7L16.7-17.7Q15.65-18.35 14.33-18.75 13-19.15 11.6-19.15L11.6-19.15Q9.5-19.15 7.73-18.38 5.95-17.6 4.6-16.3L4.6-16.3Q3.25-15 2.5-13.2 1.75-11.4 1.75-9.4L1.75-9.4Q1.75-7.35 2.5-5.6 3.25-3.85 4.6-2.5L4.6-2.5Q5.95-1.15 7.73-0.4 9.5 0.35 11.6 0.35L11.6 0.35Q13.1 0.35 14.43-0.05 15.75-0.45 16.8-1.15L16.8-1.15Q17.8-1.8 18.53-2.63 19.25-3.45 19.6-4.35L19.6-4.35Q19.6-3.7 19.6-3.18 19.6-2.65 19.6-2.05L19.6-2.05 19.6 0ZM11.6-17.15L11.6-17.15Q13.15-17.15 14.55-16.6 15.95-16.05 17-15.05L17-15.05Q18.1-14 18.75-12.53 19.4-11.05 19.4-9.4L19.4-9.4Q19.4-7.75 18.78-6.3 18.15-4.85 17.05-3.85L17.05-3.85Q15.95-2.8 14.58-2.23 13.2-1.65 11.6-1.65L11.6-1.65Q9.95-1.65 8.58-2.23 7.2-2.8 6.15-3.85L6.15-3.85Q5.05-4.85 4.42-6.3 3.8-7.75 3.8-9.4L3.8-9.4Q3.8-11 4.4-12.43 5-13.85 6.05-14.9L6.05-14.9Q7.1-15.95 8.5-16.55 9.9-17.15 11.6-17.15ZM28.65 0L38.3 0 38.3-1.95 34.55-1.95 34.55-18.75 28.65-18.75 28.65-16.8 32.5-16.8 32.5-1.95 28.65-1.95 28.65 0ZM35.2-25.4L35.2-25.4Q35.2-26.1 34.7-26.58 34.2-27.05 33.55-27.05L33.55-27.05Q32.95-27.05 32.45-26.58 31.95-26.1 31.95-25.4L31.95-25.4Q31.95-24.7 32.45-24.23 32.95-23.75 33.55-23.75L33.55-23.75Q34.2-23.75 34.7-24.23 35.2-24.7 35.2-25.4ZM53.25-1.6L53.25-1.6Q53.95-2.4 54.27-3.38 54.59-4.35 54.59-5.25L54.59-5.25Q54.59-6.85 53.92-7.8 53.25-8.75 52.25-9.35L52.25-9.35Q51.2-9.95 50.02-10.33 48.84-10.7 47.8-11.15L47.8-11.15Q46.8-11.55 46.07-12.18 45.34-12.8 45.34-13.9L45.34-13.9Q45.34-14.75 45.65-15.35 45.95-15.95 46.4-16.35L46.4-16.35Q46.9-16.7 47.57-16.88 48.25-17.05 48.9-17.05L48.9-17.05Q49.75-17.05 50.5-16.85 51.25-16.65 51.95-16.25L51.95-16.25 51.95-13.65 53.84-13.65 53.84-17.3Q53.34-17.75 52.75-18.07 52.15-18.4 51.5-18.65L51.5-18.65Q50.7-18.9 50.09-18.98 49.5-19.05 48.84-19.05L48.84-19.05Q47.95-19.05 46.9-18.73 45.84-18.4 45.05-17.75L45.05-17.75Q44.25-17.1 43.77-16.15 43.3-15.2 43.3-13.85L43.3-13.85Q43.3-12.2 43.97-11.28 44.65-10.35 45.7-9.85L45.7-9.85Q46.75-9.35 47.95-9 49.15-8.65 50.15-8.2L50.15-8.2Q51.2-7.8 51.84-7.1 52.5-6.4 52.5-5.1L52.5-5.1Q52.5-4.2 52.17-3.58 51.84-2.95 51.3-2.5L51.3-2.5Q50.7-2.05 50-1.83 49.3-1.6 48.55-1.6L48.55-1.6Q47.45-1.6 46.45-1.78 45.45-1.95 44.5-2.55L44.5-2.55 44.5-5.1 42.65-5.1 42.65-1.45Q43.8-0.35 45.32 0.03 46.84 0.4 48.45 0.4L48.45 0.4Q50.15 0.4 51.32-0.15 52.5-0.7 53.25-1.6ZM73.89-1.8L73.89-1.8 72.59-3.35Q71.59-2.55 70.34-2.1 69.09-1.65 67.69-1.65L67.69-1.65Q66.09-1.65 64.67-2.25 63.24-2.85 62.24-3.85L62.24-3.85Q61.14-4.9 60.54-6.33 59.94-7.75 59.94-9.4L59.94-9.4Q59.94-11.05 60.54-12.48 61.14-13.9 62.29-15L62.29-15Q63.29-16 64.69-16.57 66.09-17.15 67.69-17.15L67.69-17.15Q68.94-17.15 70.04-16.8 71.14-16.45 72.04-15.8L72.04-15.8 72.04-12.1 73.94-12.1 73.94-17Q72.69-18 71.09-18.57 69.49-19.15 67.69-19.15L67.69-19.15Q65.64-19.15 63.87-18.38 62.09-17.6 60.74-16.3L60.74-16.3Q59.39-15 58.64-13.2 57.89-11.4 57.89-9.4L57.89-9.4Q57.89-7.35 58.64-5.58 59.39-3.8 60.79-2.5L60.79-2.5Q62.09-1.15 63.87-0.4 65.64 0.35 67.69 0.35L67.69 0.35Q69.49 0.35 71.04-0.23 72.59-0.8 73.89-1.8ZM94.34-2.5L94.34-2.5Q95.64-3.85 96.42-5.6 97.19-7.35 97.19-9.4L97.19-9.4Q97.19-11.4 96.42-13.2 95.64-15 94.34-16.35L94.34-16.35Q92.99-17.65 91.17-18.43 89.34-19.2 87.29-19.2L87.29-19.2Q85.24-19.2 83.44-18.43 81.64-17.65 80.34-16.35L80.34-16.35Q78.99-15 78.24-13.2 77.49-11.4 77.49-9.4L77.49-9.4Q77.49-7.35 78.24-5.58 78.99-3.8 80.34-2.5L80.34-2.5Q81.64-1.15 83.42-0.4 85.19 0.35 87.29 0.35L87.29 0.35Q89.34 0.35 91.17-0.4 92.99-1.15 94.34-2.5ZM81.79-3.95L81.79-3.95Q80.74-4.95 80.14-6.35 79.54-7.75 79.54-9.4L79.54-9.4Q79.54-11 80.14-12.4 80.74-13.8 81.79-14.9L81.79-14.9Q82.84-15.95 84.24-16.55 85.64-17.15 87.24-17.15L87.24-17.15Q88.84-17.15 90.27-16.55 91.69-15.95 92.74-14.9L92.74-14.9Q93.84-13.8 94.44-12.4 95.04-11 95.04-9.4L95.04-9.4Q95.04-7.75 94.44-6.35 93.84-4.95 92.74-3.95L92.74-3.95Q91.69-2.85 90.27-2.25 88.84-1.65 87.24-1.65L87.24-1.65Q85.64-1.65 84.24-2.25 82.84-2.85 81.79-3.95ZM118.64-4.85L118.64-4.85 118.64-2.6 118.74 0 124.09 0 124.09-1.8 120.54-1.8 120.54-18.75 114.79-18.75 114.79-16.8 118.49-16.8 118.49-8.5Q118.49-7 117.86-5.73 117.24-4.45 116.19-3.6L116.19-3.6Q115.09-2.65 113.71-2.15 112.34-1.65 110.79-1.65L110.79-1.65Q108.69-1.75 107.61-2.93 106.54-4.1 106.44-5.75L106.44-5.75 106.44-18.75 100.69-18.75 100.69-16.8 104.39-16.8 104.39-5.2Q104.49-2.7 106.09-1.15 107.69 0.4 110.44 0.4L110.44 0.4Q113.19 0.4 115.41-1.03 117.64-2.45 118.64-4.85ZM127.59 0L137.24 0 137.24-1.95 133.54-1.95 133.54-10.25Q133.54-11.8 134.19-13.13 134.84-14.45 135.99-15.3L135.99-15.3Q136.99-16.15 138.31-16.63 139.64-17.1 141.14-17.1L141.14-17.1 141.24-19.15Q140.09-19.1 138.96-18.75 137.84-18.4 136.79-17.75L136.79-17.75Q135.69-17.1 134.81-16.13 133.94-15.15 133.39-13.9L133.39-13.9Q133.34-14.75 133.34-15 133.34-15.25 133.29-16.1L133.29-16.1 133.14-18.75 127.89-18.75 127.89-16.8 131.49-16.8 131.49-1.95 127.59-1.95 127.59 0ZM156.18-1.6L156.18-1.6Q156.88-2.4 157.21-3.38 157.53-4.35 157.53-5.25L157.53-5.25Q157.53-6.85 156.86-7.8 156.18-8.75 155.18-9.35L155.18-9.35Q154.13-9.95 152.96-10.33 151.78-10.7 150.73-11.15L150.73-11.15Q149.73-11.55 149.01-12.18 148.28-12.8 148.28-13.9L148.28-13.9Q148.28-14.75 148.58-15.35 148.88-15.95 149.33-16.35L149.33-16.35Q149.83-16.7 150.51-16.88 151.18-17.05 151.83-17.05L151.83-17.05Q152.68-17.05 153.43-16.85 154.18-16.65 154.88-16.25L154.88-16.25 154.88-13.65 156.78-13.65 156.78-17.3Q156.28-17.75 155.68-18.07 155.08-18.4 154.43-18.65L154.43-18.65Q153.63-18.9 153.03-18.98 152.43-19.05 151.78-19.05L151.78-19.05Q150.88-19.05 149.83-18.73 148.78-18.4 147.98-17.75L147.98-17.75Q147.18-17.1 146.71-16.15 146.23-15.2 146.23-13.85L146.23-13.85Q146.23-12.2 146.91-11.28 147.58-10.35 148.63-9.85L148.63-9.85Q149.68-9.35 150.88-9 152.08-8.65 153.08-8.2L153.08-8.2Q154.13-7.8 154.78-7.1 155.43-6.4 155.43-5.1L155.43-5.1Q155.43-4.2 155.11-3.58 154.78-2.95 154.23-2.5L154.23-2.5Q153.63-2.05 152.93-1.83 152.23-1.6 151.48-1.6L151.48-1.6Q150.38-1.6 149.38-1.78 148.38-1.95 147.43-2.55L147.43-2.55 147.43-5.1 145.58-5.1 145.58-1.45Q146.73-0.35 148.26 0.03 149.78 0.4 151.38 0.4L151.38 0.4Q153.08 0.4 154.26-0.15 155.43-0.7 156.18-1.6ZM160.83 0L170.48 0 170.48-1.95 166.73-1.95 166.73-18.75 160.83-18.75 160.83-16.8 164.68-16.8 164.68-1.95 160.83-1.95 160.83 0ZM167.38-25.4L167.38-25.4Q167.38-26.1 166.88-26.58 166.38-27.05 165.73-27.05L165.73-27.05Q165.13-27.05 164.63-26.58 164.13-26.1 164.13-25.4L164.13-25.4Q164.13-24.7 164.63-24.23 165.13-23.75 165.73-23.75L165.73-23.75Q166.38-23.75 166.88-24.23 167.38-24.7 167.38-25.4ZM173.98 0L183.63 0 183.63-1.95 179.08-1.95 179.08-16.75 185.33-16.75 185.33-18.75 179.08-18.75 179.08-25.95Q179.08-28.2 179.73-29.95 180.38-31.7 181.53-32.95L181.53-32.95Q182.63-34.2 184.15-34.85 185.68-35.5 187.38-35.55L187.38-35.55 187.38-37.5Q185.18-37.4 183.3-36.63 181.43-35.85 180.03-34.4L180.03-34.4Q178.63-32.95 177.83-30.8 177.03-28.65 177.03-25.9L177.03-25.9 177.03-18.75 173.98-18.75 173.98-16.75 177.03-16.75 177.03-1.95 173.98-1.95 173.98 0ZM191.98 12.5L201.63 12.5 201.63 10.55 198.43 10.55Q201.83 3.65 205.23-3.13 208.63-9.9 212.03-16.8L212.03-16.8 215.68-16.8 215.68-18.75 206.93-18.75 206.93-16.8 209.83-16.8Q207.93-13 206.05-9.25 204.18-5.5 202.53-1.85L202.53-1.85Q200.78-5.6 198.9-9.3 197.03-13 195.18-16.8L195.18-16.8 198.38-16.8 198.38-18.75 189.13-18.75 189.13-16.8 192.98-16.8Q195.08-12.5 197.18-8.3 199.28-4.1 201.43 0.1L201.43 0.1Q200.13 2.7 198.8 5.3 197.48 7.9 196.23 10.55L196.23 10.55 191.98 10.55 191.98 12.5Z" opacity="1" transform="matrix(1,0,0,1,0,0)" fill="#ffffff" class="wordmark-text-0" data-fill-palette-color="primary" id="text-0"></path></svg></g></svg></g></svg></g></svg></g><g transform="matrix(1,0,0,1,125.88896012079388,0)"><svg viewBox="0 0 143.74207975841222 127.7421453610657" height="127.7421453610657" width="143.74207975841222"><g><svg xmlns="http://www.w3.org/2000/svg" xmlns:xlink="http://www.w3.org/1999/xlink" version="1.1" x="8" y="0" viewBox="4.999802624769675 4.9994999999999985 90.00069737523032 90.00074359558756" enable-background="new 0 0 100 100" xml:space="preserve" height="127.7421453610657" width="127.74207975841222" class="icon-icon-0" data-fill-palette-color="accent" id="icon-0"><g fill="#7f8cd9" data-fill-palette-color="accent"><path d="M5.316 94.538l3.806-25.693C1.46 52.219 4.479 31.881 18.18 18.18c17.574-17.574 46.066-17.574 63.64 0s17.574 46.066 0 63.64c-13.884 13.884-34.583 16.799-51.328 8.745L5.316 94.538zM23.799 49.684c0 3.189 2.585 5.774 5.774 5.774s5.774-2.585 5.774-5.774c0-3.189-2.585-5.774-5.774-5.774S23.799 46.495 23.799 49.684zM44.361 49.684c0 3.189 2.585 5.774 5.774 5.774 3.189 0 5.774-2.585 5.774-5.774 0-3.189-2.585-5.774-5.774-5.774C46.946 43.91 44.361 46.495 44.361 49.684zM64.923 49.684c0 3.189 2.585 5.774 5.774 5.774s5.774-2.585 5.774-5.774c0-3.189-2.585-5.774-5.774-5.774S64.923 46.495 64.923 49.684z" fill="#ffffff" data-fill-palette-color="accent"></path></g></svg></g></svg></g><g><rect width="125.88896012079388" height="8.335686323122225" y="118.40645903794346" x="269.6310398792061" fill="#ffffff" data-fill-palette-color="accent"></rect><rect width="125.88896012079388" height="8.335686323122225" y="118.40645903794346" x="0" fill="#ffffff" data-fill-palette-color="accent"></rect><rect width="125.88896012079388" height="8.335686323122225" y="101.73508639169901" x="269.6310398792061" fill="#ffffff" data-fill-palette-color="accent"></rect><rect width="125.88896012079388" height="8.335686323122225" y="101.73508639169901" x="0" fill="#ffffff" data-fill-palette-color="accent"></rect></g></svg></g><defs></defs></svg><rect width="395.52" height="241.9961251507362" fill="none" stroke="none" visibility="hidden"></rect></g></svg></g></svg>